<svg width="36" height="36" viewBox="0 0 36 36" fill="none" xmlns="http://www.w3.org/2000/svg" xmlns:xlink="http://www.w3.org/1999/xlink">
<path d="M9.75,34.125C9.135,34.125 8.625,33.615 8.625,33L8.625,22.5C8.625,21.885 9.135,21.375 9.75,21.375C10.365,21.375 10.875,21.885 10.875,22.5L10.875,33C10.875,33.615 10.365,34.125 9.75,34.125Z" fill="#9E9E9E"/>
<path d="M9.75,8.625C9.135,8.625 8.625,8.115 8.625,7.5L8.625,3C8.625,2.385 9.135,1.875 9.75,1.875C10.365,1.875 10.875,2.385 10.875,3L10.875,7.5C10.875,8.115 10.365,8.625 9.75,8.625Z" fill="#9E9E9E"/>
<path d="M26.25,34.125C25.635,34.125 25.125,33.615 25.125,33L25.125,28.5C25.125,27.885 25.635,27.375 26.25,27.375C26.865,27.375 27.375,27.885 27.375,28.5L27.375,33C27.375,33.615 26.865,34.125 26.25,34.125Z" fill="#9E9E9E"/>
<path d="M26.25,14.625C25.635,14.625 25.125,14.115 25.125,13.5L25.125,3C25.125,2.385 25.635,1.875 26.25,1.875C26.865,1.875 27.375,2.385 27.375,3L27.375,13.5C27.375,14.115 26.865,14.625 26.25,14.625Z" fill="#9E9E9E"/>
<path d="M11.25,23.625L8.25,23.625C5.67,23.625 4.125,22.08 4.125,19.5L4.125,10.5C4.125,7.92 5.67,6.375 8.25,6.375L11.25,6.375C13.83,6.375 15.375,7.92 15.375,10.5L15.375,19.5C15.375,22.08 13.83,23.625 11.25,23.625ZM8.25,8.625C6.915,8.625 6.375,9.165 6.375,10.5L6.375,19.5C6.375,20.835 6.915,21.375 8.25,21.375L11.25,21.375C12.585,21.375 13.125,20.835 13.125,19.5L13.125,10.5C13.125,9.165 12.585,8.625 11.25,8.625L8.25,8.625Z" fill="#9E9E9E"/>
<path d="M27.75,29.625L24.75,29.625C22.17,29.625 20.625,28.08 20.625,25.5L20.625,16.5C20.625,13.92 22.17,12.375 24.75,12.375L27.75,12.375C30.33,12.375 31.875,13.92 31.875,16.5L31.875,25.5C31.875,28.08 30.33,29.625 27.75,29.625ZM24.75,14.625C23.415,14.625 22.875,15.165 22.875,16.5L22.875,25.5C22.875,26.835 23.415,27.375 24.75,27.375L27.75,27.375C29.085,27.375 29.625,26.835 29.625,25.5L29.625,16.5C29.625,15.165 29.085,14.625 27.75,14.625L24.75,14.625Z" fill="#9E9E9E"/>
</svg>
