<svg width="48" height="48" viewBox="0 0 48 48" fill="none" xmlns="http://www.w3.org/2000/svg" xmlns:xlink="http://www.w3.org/1999/xlink">
<path d="M29,33.5L19,33.5C18.18,33.5 17.5,32.82 17.5,32C17.5,31.18 18.18,30.5 19,30.5L29,30.5C29.82,30.5 30.5,31.18 30.5,32C30.5,32.82 29.82,33.5 29,33.5Z" fill="#9E9E9E"/>
<path d="M10.4,20.92C10.02,20.92 9.64,20.76 9.34,20.48C8.92,20.06 8.78,19.4 9.02,18.84L12.74,9.96C12.82,9.78 12.86,9.66 12.92,9.56C15.88,2.74 19.66,1.08 26.34,3.64C26.72,3.78 27.02,4.08 27.18,4.46C27.34,4.84 27.34,5.26 27.18,5.64L21.32,19.24C21.08,19.78 20.54,20.14 19.94,20.14L14.24,20.14C13.1,20.14 12.02,20.36 10.98,20.8C10.8,20.88 10.6,20.92 10.4,20.92ZM21.22,5.5C18.74,5.5 17.22,7.12 15.64,10.8C15.62,10.86 15.58,10.92 15.56,10.98L12.94,17.2C13.38,17.16 13.8,17.14 14.24,17.14L18.94,17.14L23.76,5.94C22.82,5.64 21.98,5.5 21.22,5.5Z" fill="#9E9E9E"/>
<path d="M36.58,20.54C36.44,20.54 36.28,20.52 36.14,20.48C35.4,20.26 34.58,20.14 33.74,20.14L19.94,20.14C19.44,20.14 18.96,19.88 18.68,19.46C18.42,19.04 18.36,18.5 18.56,18.04L24.36,4.58C24.66,3.86 25.52,3.38 26.28,3.62C26.52,3.7 26.74,3.8 26.98,3.9L31.7,5.88C34.46,7.02 36.3,8.22 37.5,9.66C37.74,9.94 37.94,10.24 38.12,10.54C38.34,10.88 38.54,11.3 38.68,11.72C38.74,11.86 38.84,12.12 38.9,12.4C39.46,14.28 39.18,16.62 37.98,19.62C37.74,20.18 37.18,20.54 36.58,20.54ZM22.22,17.14L33.76,17.14C34.4,17.14 35.02,17.2 35.64,17.3C36.2,15.56 36.32,14.22 36,13.14C35.96,12.96 35.92,12.88 35.9,12.8C35.78,12.48 35.7,12.3 35.6,12.14C35.46,11.92 35.36,11.74 35.2,11.56C34.34,10.52 32.82,9.56 30.56,8.64L26.6,6.98L22.22,17.14Z" fill="#9E9E9E"/>
<path d="M31.8,45.5L16.2,45.5C15.64,45.5 15.12,45.46 14.6,45.4C7.58,44.92 3.58,40.92 3.1,33.82C3.04,33.38 3,32.84 3,32.3L3,28.4C3,23.9 5.68,19.84 9.82,18.04C11.22,17.44 12.72,17.14 14.26,17.14L33.78,17.14C34.92,17.14 36.02,17.3 37.04,17.62C41.74,19.04 45.04,23.48 45.04,28.4L45.04,32.3C45.04,32.74 45.02,33.16 45,33.56C44.56,41.38 40,45.5 31.8,45.5ZM14.24,20.14C13.1,20.14 12.02,20.36 10.98,20.8C7.94,22.12 5.98,25.1 5.98,28.4L5.98,32.3C5.98,32.72 6.02,33.14 6.06,33.54C6.44,39.24 9.24,42.04 14.86,42.42C15.36,42.48 15.76,42.52 16.18,42.52L31.78,42.52C38.38,42.52 41.62,39.62 41.94,33.42C41.96,33.06 41.98,32.7 41.98,32.3L41.98,28.4C41.98,24.78 39.56,21.54 36.12,20.48C35.38,20.26 34.56,20.14 33.72,20.14L14.24,20.14L14.24,20.14Z" fill="#9E9E9E"/>
<path d="M4.48,29.9C3.66,29.9 2.98,29.22 2.98,28.4L2.98,22.54C2.98,16.24 7.44,10.8 13.6,9.6C14.14,9.5 14.7,9.7 15.06,10.12C15.4,10.54 15.5,11.14 15.28,11.64L11.78,20C11.62,20.36 11.34,20.64 11,20.8C7.96,22.12 6,25.1 6,28.4C5.98,29.22 5.32,29.9 4.48,29.9ZM11.2,13.64C8.64,15.08 6.78,17.6 6.2,20.54C7.08,19.64 8.1,18.88 9.26,18.32L11.2,13.64Z" fill="#9E9E9E"/>
<path d="M43.52,29.9C42.7,29.9 42.02,29.22 42.02,28.4C42.02,24.78 39.6,21.54 36.16,20.48C35.76,20.36 35.42,20.08 35.24,19.7C35.06,19.32 35.04,18.88 35.2,18.5C36.14,16.16 36.38,14.46 36,13.14C35.96,12.96 35.92,12.88 35.9,12.8C35.64,12.22 35.78,11.54 36.24,11.1C36.7,10.66 37.4,10.56 37.96,10.86C42.32,13.14 45.02,17.62 45.02,22.54L45.02,28.4C45.02,29.22 44.34,29.9 43.52,29.9ZM38.5,18.18C39.76,18.76 40.88,19.58 41.82,20.56C41.44,18.6 40.5,16.82 39.12,15.42C39.02,16.26 38.82,17.18 38.5,18.18Z" fill="#9E9E9E"/>
</svg>
