<svg width="48" height="48" viewBox="0 0 48 48" fill="none" xmlns="http://www.w3.org/2000/svg" xmlns:xlink="http://www.w3.org/1999/xlink">
<path d="M24,45.62C22.62,45.62 21.32,44.92 20.4,43.7L17.4,39.7C17.34,39.62 17.1,39.52 17,39.5L16,39.5C7.66,39.5 2.5,37.24 2.5,26L2.5,16C2.5,7.16 7.16,2.5 16,2.5L32,2.5C40.84,2.5 45.5,7.16 45.5,16L45.5,26C45.5,34.84 40.84,39.5 32,39.5L31,39.5C30.84,39.5 30.7,39.58 30.6,39.7L27.6,43.7C26.68,44.92 25.38,45.62 24,45.62ZM16,5.5C8.84,5.5 5.5,8.84 5.5,16L5.5,26C5.5,35.04 8.6,36.5 16,36.5L17,36.5C18.02,36.5 19.18,37.08 19.8,37.9L22.8,41.9C23.5,42.82 24.5,42.82 25.2,41.9L28.2,37.9C28.86,37.02 29.9,36.5 31,36.5L32,36.5C39.16,36.5 42.5,33.16 42.5,26L42.5,16C42.5,8.84 39.16,5.5 32,5.5L16,5.5Z" fill="#9E9E9E"/>
<path d="M34,17.5L14,17.5C13.18,17.5 12.5,16.82 12.5,16C12.5,15.18 13.18,14.5 14,14.5L34,14.5C34.82,14.5 35.5,15.18 35.5,16C35.5,16.82 34.82,17.5 34,17.5Z" fill="#9E9E9E"/>
<path d="M26,27.5L14,27.5C13.18,27.5 12.5,26.82 12.5,26C12.5,25.18 13.18,24.5 14,24.5L26,24.5C26.82,24.5 27.5,25.18 27.5,26C27.5,26.82 26.82,27.5 26,27.5Z" fill="#9E9E9E"/>
</svg>
