<svg width="48" height="48" viewBox="0 0 48 48" fill="none" xmlns="http://www.w3.org/2000/svg" xmlns:xlink="http://www.w3.org/1999/xlink">
<path d="M23,43.5C11.7,43.5 2.5,34.3 2.5,23C2.5,11.7 11.7,2.5 23,2.5C34.3,2.5 43.5,11.7 43.5,23C43.5,34.3 34.3,43.5 23,43.5ZM23,5.5C13.34,5.5 5.5,13.36 5.5,23C5.5,32.64 13.34,40.5 23,40.5C32.66,40.5 40.5,32.64 40.5,23C40.5,13.36 32.66,5.5 23,5.5Z" fill="#9E9E9E"/>
<path d="M44.001,45.5C43.621,45.5 43.241,45.36 42.941,45.06L38.941,41.06C38.361,40.48 38.361,39.52 38.941,38.94C39.521,38.36 40.481,38.36 41.061,38.94L45.061,42.94C45.641,43.52 45.641,44.48 45.061,45.06C44.761,45.36 44.381,45.5 44.001,45.5Z" fill="#9E9E9E"/>
<g opacity="0">
<path d="M48,0L0,0L0,48L48,48L48,0Z" fill="#9E9E9E"/>
</g>
</svg>
