<svg width="48" height="48" viewBox="0 0 48 48" fill="none" xmlns="http://www.w3.org/2000/svg" xmlns:xlink="http://www.w3.org/1999/xlink">
<path d="M26,19.5L14,19.5C13.18,19.5 12.5,18.82 12.5,18C12.5,17.18 13.18,16.5 14,16.5L26,16.5C26.82,16.5 27.5,17.18 27.5,18C27.5,18.82 26.82,19.5 26,19.5Z" fill="#9E9E9E"/>
<path d="M38.08,29.6C35.06,29.6 32.5,27.36 32.26,24.48C32.1,22.82 32.7,21.2 33.9,20.02C34.9,18.98 36.32,18.4 37.82,18.4L42,18.4C43.98,18.46 45.5,20.02 45.5,21.94L45.5,26.06C45.5,27.98 43.98,29.54 42.06,29.6L38.08,29.6ZM41.94,21.4L37.84,21.4C37.14,21.4 36.5,21.66 36.04,22.14C35.46,22.7 35.18,23.46 35.26,24.22C35.36,25.54 36.64,26.6 38.08,26.6L42,26.6C42.26,26.6 42.5,26.36 42.5,26.06L42.5,21.94C42.5,21.64 42.26,21.42 41.94,21.4Z" fill="#9E9E9E"/>
<path d="M32,42.5L14,42.5C7.12,42.5 2.5,37.88 2.5,31L2.5,17C2.5,10.84 6.3,6.38 12.2,5.64C12.74,5.56 13.36,5.5 14,5.5L32,5.5C32.48,5.5 33.1,5.52 33.74,5.62C39.64,6.3 43.5,10.78 43.5,17L43.5,19.9C43.5,20.72 42.82,21.4 42,21.4L37.84,21.4C37.14,21.4 36.5,21.66 36.04,22.14L36.02,22.16C35.46,22.7 35.2,23.44 35.26,24.2C35.36,25.52 36.64,26.58 38.08,26.58L42,26.58C42.82,26.58 43.5,27.26 43.5,28.08L43.5,30.98C43.5,37.88 38.88,42.5 32,42.5ZM14,8.5C13.52,8.5 13.06,8.54 12.6,8.6C8.2,9.16 5.5,12.36 5.5,17L5.5,31C5.5,36.16 8.84,39.5 14,39.5L32,39.5C37.16,39.5 40.5,36.16 40.5,31L40.5,29.6L38.08,29.6C35.06,29.6 32.5,27.36 32.26,24.48C32.1,22.84 32.7,21.2 33.9,20.04C34.94,18.98 36.34,18.4 37.84,18.4L40.5,18.4L40.5,17C40.5,12.32 37.76,9.1 33.32,8.58C32.84,8.5 32.42,8.5 32,8.5L14,8.5L14,8.5Z" fill="#9E9E9E"/>
</svg>
