<svg width="48" height="48" viewBox="0 0 48 48" fill="none" xmlns="http://www.w3.org/2000/svg" xmlns:xlink="http://www.w3.org/1999/xlink">
<path d="M23.3,4.7L12.72,15.28C12.32,15.68 12.32,16.3 12.72,16.7L15.3,19.28C15.7,19.68 16.32,19.68 16.72,19.28L23.3,12.7C23.7,12.3 24.32,12.3 24.72,12.7L31.3,19.28C31.7,19.68 32.32,19.68 32.72,19.28L35.3,16.7C35.7,16.3 35.7,15.68 35.3,15.28L24.72,4.7C24.32,4.32 23.68,4.32 23.3,4.7Z" fill="#FFC01E"/>
<path d="M23.3,43.3L12.72,32.72C12.32,32.32 12.32,31.7 12.72,31.3L15.3,28.72C15.7,28.32 16.32,28.32 16.72,28.72L23.3,35.3C23.7,35.7 24.32,35.7 24.72,35.3L31.3,28.72C31.7,28.32 32.32,28.32 32.72,28.72L35.3,31.3C35.7,31.7 35.7,32.32 35.3,32.72L24.72,43.3C24.32,43.68 23.68,43.68 23.3,43.3Z" fill="#FFC01E"/>
<path d="M40.2,20.2L43.28,23.28C43.68,23.68 43.68,24.3 43.28,24.7L40.2,27.78C39.8,28.18 39.18,28.18 38.78,27.78L35.7,24.7C35.3,24.3 35.3,23.68 35.7,23.28L38.78,20.2C39.18,19.82 39.82,19.82 40.2,20.2Z" fill="#FFC01E"/>
<path d="M9.2,20.2L12.28,23.28C12.68,23.68 12.68,24.3 12.28,24.7L9.2,27.78C8.8,28.18 8.18,28.18 7.78,27.78L4.7,24.7C4.3,24.3 4.3,23.68 4.7,23.28L7.78,20.2C8.18,19.82 8.82,19.82 9.2,20.2Z" fill="#FFC01E"/>
<path d="M24.7,19.76L28.24,23.3C28.64,23.7 28.64,24.32 28.24,24.72L24.7,28.26C24.3,28.66 23.68,28.66 23.28,28.26L19.74,24.72C19.34,24.32 19.34,23.7 19.74,23.3L23.28,19.76C23.68,19.36 24.32,19.36 24.7,19.76Z" fill="#FFC01E"/>
</svg>
