<svg width="48" height="48" viewBox="0 0 48 48" fill="none" xmlns="http://www.w3.org/2000/svg" xmlns:xlink="http://www.w3.org/1999/xlink">
<path d="M29.94,25.5L28.4,25.5L19.06,25.5L19.06,31.16L21.68,31.16L29.94,31.16C31.84,31.16 33.4,29.88 33.4,28.32C33.4,26.76 31.84,25.5 29.94,25.5Z" fill="#FFC01E"/>
<path d="M24,4C12.96,4 4,12.96 4,24C4,35.04 12.96,44 24,44C35.04,44 44,35.04 44,24C44,12.96 35.04,4 24,4ZM29.94,34.16L26.64,34.16L26.64,37C26.64,37.82 25.96,38.5 25.14,38.5C24.32,38.5 23.64,37.82 23.64,37L23.64,34.16L21.68,34.16L21.22,34.16L21.22,37C21.22,37.82 20.54,38.5 19.72,38.5C18.9,38.5 18.22,37.82 18.22,37L18.22,34.16L17.56,34.16L14.1,34.16C13.28,34.16 12.6,33.48 12.6,32.66C12.6,31.84 13.28,31.16 14.1,31.16L16.06,31.16L16.06,24L16.06,16.84L14.1,16.84C13.28,16.84 12.6,16.16 12.6,15.34C12.6,14.52 13.28,13.84 14.1,13.84L17.56,13.84L18.22,13.84L18.22,11C18.22,10.18 18.9,9.5 19.72,9.5C20.54,9.5 21.22,10.18 21.22,11L21.22,13.84L21.68,13.84L23.64,13.84L23.64,11C23.64,10.18 24.32,9.5 25.14,9.5C25.96,9.5 26.64,10.18 26.64,11L26.64,13.84L28.4,13.84C31.5,13.84 34.24,16.56 34.24,19.68C34.24,21.02 33.76,22.24 33,23.24C35.02,24.22 36.4,26.14 36.4,28.36C36.4,31.54 33.5,34.16 29.94,34.16Z" fill="#FFC01E"/>
<path d="M31.24,19.66C31.24,18.34 30,16.82 28.4,16.82L21.68,16.82L19.06,16.82L19.06,22.48L28.4,22.48C29.96,22.5 31.24,21.22 31.24,19.66Z" fill="#FFC01E"/>
</svg>
