<svg width="48" height="48" viewBox="0 0 48 48" fill="none" xmlns="http://www.w3.org/2000/svg" xmlns:xlink="http://www.w3.org/1999/xlink">
<path d="M36.64,25.5L30,25.5C25.02,25.5 22.5,22.68 22.5,17.1L22.5,11.36C22.5,9.32 22.74,6.4 24.86,4.8C26.64,3.48 29.2,3.38 32.98,4.48C37.94,5.92 42.08,10.06 43.52,15.02C44.62,18.78 44.52,21.36 43.2,23.12C41.6,25.26 38.68,25.5 36.64,25.5ZM28.56,6.72C27.74,6.72 27.1,6.88 26.68,7.2C25.9,7.78 25.52,9.14 25.52,11.36L25.52,17.12C25.52,21.6 27.24,22.52 30.02,22.52L36.66,22.52C38.86,22.52 40.22,22.14 40.82,21.36C41.52,20.44 41.46,18.6 40.68,15.9C39.52,11.96 36.12,8.54 32.18,7.4C30.7,6.94 29.5,6.72 28.56,6.72Z" fill="#9E9E9E"/>
<path d="M22.14,45.5C21.08,45.5 20,45.42 18.92,45.24C10.74,43.92 4.08,37.28 2.76,29.1C1.06,18.58 7.84,8.66 18.22,6.54C19.04,6.38 19.82,6.9 20,7.7C20.16,8.52 19.64,9.3 18.84,9.48C10.06,11.28 4.3,19.68 5.76,28.62C6.88,35.54 12.5,41.16 19.42,42.28C28.4,43.72 36.78,37.94 38.56,29.12C38.72,28.3 39.52,27.78 40.32,27.94C41.14,28.1 41.66,28.9 41.5,29.7C39.6,39.04 31.44,45.5 22.14,45.5Z" fill="#9E9E9E"/>
</svg>
