<svg width="36" height="36" viewBox="0 0 36 36" fill="none" xmlns="http://www.w3.org/2000/svg" xmlns:xlink="http://www.w3.org/1999/xlink">
<path d="M19.125,23.88L20.1,23.88C21.075,23.88 21.885,23.01 21.885,21.96C21.885,20.655 21.42,20.4 20.655,20.13L19.14,19.605L19.14,23.88L19.125,23.88Z" fill="#FFC01E"/>
<path d="M17.955,2.85C9.675,2.88 2.97,9.615 3,17.895C3.03,26.175 9.765,32.88 18.045,32.85C26.325,32.82 33.03,26.085 33,17.805C32.97,9.525 26.235,2.835 17.955,2.85ZM21.39,18C22.56,18.405 24.135,19.275 24.135,21.96C24.135,24.27 22.32,26.13 20.1,26.13L19.125,26.13L19.125,27C19.125,27.615 18.615,28.125 18,28.125C17.385,28.125 16.875,27.615 16.875,27L16.875,26.13L16.335,26.13C13.875,26.13 11.88,24.06 11.88,21.51C11.88,20.895 12.39,20.385 13.005,20.385C13.62,20.385 14.13,20.895 14.13,21.51C14.13,22.815 15.12,23.88 16.335,23.88L16.875,23.88L16.875,18.81L14.61,18C13.44,17.595 11.865,16.725 11.865,14.04C11.865,11.73 13.68,9.87 15.9,9.87L16.875,9.87L16.875,9C16.875,8.385 17.385,7.875 18,7.875C18.615,7.875 19.125,8.385 19.125,9L19.125,9.87L19.665,9.87C22.125,9.87 24.12,11.94 24.12,14.49C24.12,15.105 23.61,15.615 22.995,15.615C22.38,15.615 21.87,15.105 21.87,14.49C21.87,13.185 20.88,12.12 19.665,12.12L19.125,12.12L19.125,17.19L21.39,18Z" fill="#FFC01E"/>
<path d="M14.13,14.055C14.13,15.36 14.595,15.615 15.36,15.885L16.875,16.41L16.875,12.12L15.9,12.12C14.925,12.12 14.13,12.99 14.13,14.055Z" fill="#FFC01E"/>
</svg>
