<svg width="48" height="48" viewBox="0 0 48 48" fill="none" xmlns="http://www.w3.org/2000/svg" xmlns:xlink="http://www.w3.org/1999/xlink">
<path d="M30.48,44.54L30.22,44.54C21.34,44.54 17.06,41.04 16.32,33.2C16.24,32.38 16.84,31.64 17.68,31.56C18.48,31.48 19.24,32.1 19.32,32.92C19.9,39.2 22.86,41.54 30.24,41.54L30.5,41.54C38.64,41.54 41.52,38.66 41.52,30.52L41.52,17.48C41.52,9.34 38.64,6.46 30.5,6.46L30.24,6.46C22.82,6.46 19.86,8.84 19.32,15.24C19.22,16.06 18.52,16.68 17.68,16.6C16.84,16.54 16.24,15.8 16.3,14.98C16.98,7.02 21.28,3.46 30.22,3.46L30.48,3.46C40.3,3.46 44.5,7.66 44.5,17.48L44.5,30.52C44.5,40.34 40.3,44.54 30.48,44.54Z" fill="#9E9E9E"/>
<path d="M30,25.5L7.24,25.5C6.42,25.5 5.74,24.82 5.74,24C5.74,23.18 6.42,22.5 7.24,22.5L30,22.5C30.82,22.5 31.5,23.18 31.5,24C31.5,24.82 30.82,25.5 30,25.5Z" fill="#9E9E9E"/>
<path d="M11.7,32.2C11.32,32.2 10.94,32.06 10.64,31.76L3.94,25.06C3.36,24.48 3.36,23.52 3.94,22.94L10.64,16.24C11.22,15.66 12.18,15.66 12.76,16.24C13.34,16.82 13.34,17.78 12.76,18.36L7.12,24L12.76,29.64C13.34,30.22 13.34,31.18 12.76,31.76C12.48,32.06 12.08,32.2 11.7,32.2Z" fill="#9E9E9E"/>
</svg>
