<svg width="48" height="48" viewBox="0 0 48 48" fill="none" xmlns="http://www.w3.org/2000/svg" xmlns:xlink="http://www.w3.org/1999/xlink">
<path d="M17.54,28.86L20.76,30.3C22.82,31.22 25.18,31.22 27.26,30.3L30.48,28.86C33.36,27.58 36.02,31.06 34.02,33.5L27.1,41.96C25.4,44.04 22.62,44.04 20.9,41.96L14,33.5C11.98,31.06 14.64,27.58 17.54,28.86Z" fill="#3A6FF8"/>
<path d="M17.14,23.34C16.54,23.78 16.62,24.7 17.3,25.04L22,27.38C23.1,27.94 24.88,27.94 25.96,27.38L30.66,25.04C31.32,24.7 31.4,23.8 30.82,23.34L24.6,18.66C24.24,18.4 23.76,18.4 23.4,18.66L17.14,23.34Z" fill="#3A6FF8"/>
<path d="M35.76,16.48L27.42,6.08C27.26,5.88 27.08,5.7 26.9,5.52C26.38,5.02 25.64,5.48 25.64,6.2L25.64,14.8C25.64,15.12 25.78,15.42 26.04,15.6L34.34,21.84L34.7,22.1C35.06,22.36 35.56,22.36 35.86,22.04C37.26,20.52 37.24,18.32 35.76,16.48Z" fill="#3A6FF8"/>
<path d="M12.22,16.66L20.52,6.1C20.68,5.9 20.84,5.72 21.02,5.54C21.54,5.04 22.28,5.48 22.28,6.22L22.28,14.96C22.28,15.28 22.14,15.56 21.88,15.76L13.62,22.1L13.28,22.36C12.92,22.62 12.42,22.62 12.1,22.28C10.74,20.74 10.76,18.54 12.22,16.66Z" fill="#3A6FF8"/>
</svg>
