<svg width="48" height="48" viewBox="0 0 48 48" fill="none" xmlns="http://www.w3.org/2000/svg" xmlns:xlink="http://www.w3.org/1999/xlink">
<path d="M34,42.5L14,42.5C6.7,42.5 2.5,38.3 2.5,31L2.5,17C2.5,9.7 6.7,5.5 14,5.5L34,5.5C41.3,5.5 45.5,9.7 45.5,17L45.5,31C45.5,38.3 41.3,42.5 34,42.5ZM14,8.5C8.28,8.5 5.5,11.28 5.5,17L5.5,31C5.5,36.72 8.28,39.5 14,39.5L34,39.5C39.72,39.5 42.5,36.72 42.5,31L42.5,17C42.5,11.28 39.72,8.5 34,8.5L14,8.5Z" fill="#9E9E9E"/>
<path d="M24,25.74C22.32,25.74 20.62,25.22 19.32,24.16L13.06,19.16C12.42,18.64 12.3,17.7 12.82,17.06C13.34,16.42 14.28,16.3 14.92,16.82L21.18,21.82C22.7,23.04 25.28,23.04 26.8,21.82L33.06,16.82C33.7,16.3 34.66,16.4 35.16,17.06C35.68,17.7 35.58,18.66 34.92,19.16L28.66,24.16C27.38,25.22 25.68,25.74 24,25.74Z" fill="#9E9E9E"/>
</svg>
