<svg width="72" height="40" viewBox="0 0 72 40" fill="none" xmlns="http://www.w3.org/2000/svg" xmlns:xlink="http://www.w3.org/1999/xlink">
<path d="M24.686,0C20.625,0 16.73,1.613 13.858,4.485L4.485,13.858C1.613,16.73 0,20.625 0,24.686C0,33.144 6.856,40 15.314,40C19.375,40 23.27,38.387 26.142,35.515L32.625,29.032C32.625,29.032 32.625,29.031 32.625,29.032L51.515,10.142C52.886,8.771 54.747,8 56.686,8C59.934,8 62.687,10.117 63.641,13.045L69.603,7.084C66.883,2.824 62.115,0 56.686,0C52.625,0 48.73,1.613 45.858,4.485L20.485,29.858C19.114,31.229 17.253,32 15.314,32C11.274,32 8,28.726 8,24.686C8,22.747 8.771,20.886 10.142,19.515L19.515,10.142C20.886,8.771 22.747,8 24.686,8C27.934,8 30.687,10.117 31.641,13.046L37.603,7.084C34.883,2.825 30.115,0 24.686,0Z" fill="#3A6FF8"/>
<path d="M20.088,29.858C18.716,31.229 16.856,32 14.916,32C11.669,32 8.916,29.884 7.961,26.956L2,32.917C4.72,37.176 9.488,40 14.916,40C18.978,40 22.873,38.387 25.745,35.515L51.117,10.142C52.489,8.771 54.349,8 56.289,8C60.328,8 63.602,11.274 63.602,15.314C63.602,17.253 62.832,19.114 61.46,20.485L52.088,29.858C50.716,31.229 48.856,32 46.916,32C43.669,32 40.916,29.884 39.961,26.955L34,32.916C36.719,37.176 41.488,40 46.916,40C50.978,40 54.873,38.387 57.745,35.515L67.117,26.142C69.989,23.27 71.602,19.375 71.602,15.314C71.602,6.856 64.746,0 56.289,0C52.227,0 48.332,1.613 45.46,4.485L20.088,29.858Z" fill="#3A6FF8"/>
</svg>
