<svg width="44" height="44" viewBox="0 0 44 44" fill="none" xmlns="http://www.w3.org/2000/svg">
<path d="M30.0002 13.5H15.5002C15.1902 13.5 14.8902 13.65 14.7002 13.9L13.2002 15.9C12.7102 16.56 13.1802 17.5 14.0002 17.5H28.5002C28.8102 17.5 29.1102 17.35 29.3002 17.1L30.8002 15.1C31.2902 14.44 30.8202 13.5 30.0002 13.5Z" fill="#1ECB4F"/>
<path d="M14.0002 20H28.5002C28.8102 20 29.1102 20.15 29.3002 20.4L30.8002 22.4C31.2902 23.06 30.8202 24 30.0002 24H15.5002C15.1902 24 14.8902 23.85 14.7002 23.6L13.2002 21.6C12.7102 20.94 13.1802 20 14.0002 20Z" fill="#1ECB4F"/>
<path d="M30.0002 26.5H15.5002C15.1902 26.5 14.8902 26.65 14.7002 26.9L13.2002 28.9C12.7102 29.56 13.1802 30.5 14.0002 30.5H28.5002C28.8102 30.5 29.1102 30.35 29.3002 30.1L30.8002 28.1C31.2902 27.44 30.8202 26.5 30.0002 26.5Z" fill="#1ECB4F"/>
</svg>
