<svg width="218" height="100" viewBox="0 0 218 100" fill="none" xmlns="http://www.w3.org/2000/svg" xmlns:xlink="http://www.w3.org/1999/xlink">
<path d="M0.099,96.38C-0.244,97.43 0.33,98.559 1.38,98.901C2.43,99.244 3.559,98.67 3.901,97.62L0.099,96.38ZM17,51L18.554,49.742L16.239,46.882L15.099,50.38L17,51ZM34,72L32.446,73.258L34.866,76.249L35.923,72.549L34,72ZM44,37L45.779,36.085L43.466,31.589L42.077,36.451L44,37ZM62,72L60.221,72.915L62.234,76.829L63.859,72.738L62,72ZM89,4L90.75,3.032L88.702,-0.67L87.141,3.262L89,4ZM115,51L113.25,51.968L114.166,53.624L115.869,52.801L115,51ZM144,37L145.414,35.586L144.41,34.581L143.131,35.199L144,37ZM167,60L165.586,61.414L167.714,63.543L168.852,60.756L167,60ZM187,11L188.732,10.001L186.692,6.463L185.148,10.244L187,11ZM202,37L200.268,37.999L200.845,39L202,39L202,37ZM216,39C217.104,39 218,38.105 218,37C218,35.895 217.104,35 216,35L216,39ZM3.901,97.62L18.901,51.62L15.099,50.38L0.099,96.38L3.901,97.62ZM15.445,52.258L32.446,73.258L35.554,70.742L18.554,49.742L15.445,52.258ZM35.923,72.549L45.923,37.549L42.077,36.451L32.077,71.451L35.923,72.549ZM42.221,37.915L60.221,72.915L63.779,71.085L45.779,36.085L42.221,37.915ZM63.859,72.738L90.859,4.738L87.141,3.262L60.141,71.262L63.859,72.738ZM87.25,4.968L113.25,51.968L116.75,50.032L90.75,3.032L87.25,4.968ZM115.869,52.801L144.869,38.801L143.131,35.199L114.131,49.199L115.869,52.801ZM142.586,38.414L165.586,61.414L168.414,58.586L145.414,35.586L142.586,38.414ZM168.852,60.756L188.852,11.756L185.148,10.244L165.148,59.244L168.852,60.756ZM185.268,11.999L200.268,37.999L203.732,36.001L188.732,10.001L185.268,11.999ZM202,39L216,39L216,35L202,35L202,39Z" fill="#1ECB4F"/>
</svg>
