<svg width="40" height="40" viewBox="0 0 40 40" fill="none" xmlns="http://www.w3.org/2000/svg" xmlns:xlink="http://www.w3.org/1999/xlink">
<path d="M20,0C8.96,0 0,8.96 0,20C0,31.04 8.96,40 20,40C31.04,40 40,31.04 40,20C40,8.96 31.04,0 20,0ZM27.64,28.64C27.46,29.6 26.64,30.28 25.68,30.28L14.6,30.28C13.28,30.28 12.32,29 12.68,27.74L14.36,21.84L10.94,22.52C10.84,22.54 10.74,22.54 10.64,22.54C9.94,22.54 9.32,22.04 9.18,21.34C9.02,20.52 9.54,19.74 10.36,19.58L15.3,18.6L17.92,9.46C18.04,9.04 18.44,8.74 18.88,8.74L21.6,8.74C22.92,8.74 23.88,9.98 23.54,11.26L21.92,17.28L25.78,16.5C26.58,16.34 27.38,16.86 27.54,17.68C27.7,18.5 27.18,19.28 26.36,19.44L21.04,20.5L19.94,24.6L26,24.6C27.24,24.6 28.18,25.72 27.96,26.96L27.64,28.64Z" fill="#64CFF9"/>
</svg>
